<?xml version="1.0" encoding="utf-8"?>
<!-- Generator: Adobe Illustrator 16.0.4, SVG Export Plug-In . SVG Version: 6.00 Build 0)  -->
<!DOCTYPE svg PUBLIC "-//W3C//DTD SVG 1.1//EN" "http://www.w3.org/Graphics/SVG/1.1/DTD/svg11.dtd">
<svg version="1.1" id="Layer_1" xmlns="http://www.w3.org/2000/svg" xmlns:xlink="http://www.w3.org/1999/xlink" x="0px" y="0px"
	 width="4911.138px" height="1111.856px" viewBox="0 0 4911.138 1111.856" enable-background="new 0 0 4911.138 1111.856"
	 xml:space="preserve">
<g>
	<g>
		<path fill="#2E94BC" d="M142.552,85.66h116.072l92.016,242.368L448.069,85.66h117.274l68.562,453.463H516.028l-33.077-261.012
			h-1.203L372.892,539.123h-46.909L221.939,278.111h-1.203l-37.889,261.012H65.572L142.552,85.66z"/>
		<path fill="#2E94BC" d="M799.287,460.338l-31.273,78.785H642.92L817.33,85.66h128.701l170.801,453.463H991.136l-29.469-78.785
			H799.287z M881.68,225.788h-1.203l-48.714,144.338h98.029L881.68,225.788z"/>
		<path fill="#2E94BC" d="M1530.598,539.123h-146.744l-111.261-174.409h-1.202v174.409h-117.877V85.66h176.213
			c89.61,0,157.57,42.7,157.57,139.527c0,62.547-34.882,116.673-99.233,128.101L1530.598,539.123z M1271.391,288.936h11.427
			c38.49,0,81.791-7.217,81.791-56.533c0-49.315-43.301-56.532-81.791-56.532h-11.427V288.936z"/>
		<path fill="#2E94BC" d="M1677.941,460.338l-31.273,78.785h-125.093L1695.984,85.66h128.701l170.801,453.463h-125.695
			l-29.469-78.785H1677.941z M1760.334,225.788h-1.203l-48.714,144.338h98.029L1760.334,225.788z"/>
		<path fill="#2E94BC" d="M2176.508,539.123h-117.877V185.494h-97.428V85.66h312.733v99.834h-97.429V539.123z"/>
		<path fill="#2E94BC" d="M2604.708,260.67V85.66h117.876v453.463h-117.876V353.287h-170.199v185.835h-117.876V85.66h117.876v175.01
			H2604.708z"/>
		<path fill="#2E94BC" d="M3278.286,303.971c0,146.744-105.247,250.187-250.788,250.187s-250.788-103.442-250.788-250.187
			c0-137.122,120.282-233.347,250.788-233.347S3278.286,166.85,3278.286,303.971z M2899.397,304.573
			c0,78.183,57.735,135.317,128.101,135.317s128.101-57.134,128.101-135.317c0-62.547-57.735-119.681-128.101-119.681
			S2899.397,242.026,2899.397,304.573z"/>
		<path fill="#2E94BC" d="M3333.012,85.66h117.877l215.906,277.25h1.202V85.66h117.877v453.463h-117.877l-215.906-277.852h-1.202
			v277.852h-117.877V85.66z"/>
	</g>
	<g>
		<path fill="#2E94BC" d="M1779.586,898.744v134.896h-38.746V662.318h138.149c83.533,0,141.431,45.303,141.431,118.461
			c0,60.606-40.445,102.679-102.706,114.663l119.026,138.197h-48.559l-116.313-134.896H1779.586z M1877.881,863.228
			c60.61,0,103.743-31.085,103.743-82.448c0-51.839-43.133-82.968-103.743-82.968h-98.295v165.416H1877.881z"/>
		<path fill="#2E94BC" d="M2465.889,847.944c0,107.022-86.292,193.288-193.289,193.288c-107.022,0-193.292-86.266-193.292-193.288
			c0-107.022,86.27-193.291,193.292-193.291C2379.597,654.653,2465.889,740.922,2465.889,847.944z M2426.576,847.944
			c0-86.268-67.708-157.255-154.544-157.255c-86.243,0-153.976,70.987-153.976,157.255c0,86.267,67.732,157.253,153.976,157.253
			C2358.868,1005.197,2426.576,934.21,2426.576,847.944z"/>
		<path fill="#2E94BC" d="M2923.88,847.944c0,107.022-86.267,193.288-193.291,193.288c-107.021,0-193.289-86.266-193.289-193.288
			c0-107.022,86.269-193.291,193.289-193.291C2837.614,654.653,2923.88,740.922,2923.88,847.944z M2884.542,847.944
			c0-86.268-67.684-157.255-154.519-157.255c-86.241,0-153.952,70.987-153.952,157.255c0,86.267,67.711,157.253,153.952,157.253
			C2816.858,1005.197,2884.542,934.21,2884.542,847.944z"/>
		<path fill="#2E94BC" d="M3050.449,936.427v97.213h-38.766V662.318h38.766V882.89l212.397-220.572h47.475l-159.942,169.256
			l179.632,202.065h-49.172l-157.798-173.669L3050.449,936.427z"/>
		<path fill="#2E94BC" d="M3432.576,1033.64h-38.77V662.318h38.77V1033.64z"/>
		<path fill="#2E94BC" d="M3575.609,831.06h197.111v36.035h-197.111v131.029h218.948v35.516h-257.742V662.318h257.742v35.494
			h-218.948V831.06z"/>
	</g>
	<g>
		<path fill-rule="evenodd" clip-rule="evenodd" fill="none" stroke="#2E94BC" stroke-width="22.9321" stroke-miterlimit="10" d="
			M4845.566,554.688c0,260.829-211.383,472.186-472.192,472.186c-260.738,0-472.146-211.357-472.146-472.186
			c0-260.763,211.407-472.146,472.146-472.146C4634.183,82.543,4845.566,293.926,4845.566,554.688z"/>
		<g>
			<path fill-rule="evenodd" clip-rule="evenodd" fill="#2E94BC" d="M4054.076,784.905c0-7.167,0-14.403,0-21.588
				c6.579-22.195,12.964-44.32,19.636-66.494c1.815-5.955,3.812-11.8,5.804-17.665c1.164-3.454,3.089-4.301,7.031-3.742
				c12.071,1.388,21.697,6.921,31.285,13.928c4.189,3.044,10.746,3.854,16.235,3.991c24.228,0.581,47.743-3.499,70.987-10.461
				c22.732-6.858,45.262-3.474,67.477,3.25c4.392,1.276,8.689,2.73,13.013,4.386c6.382,2.571,11.423,0.469,15.784-4.21
				c4.977-5.418,6.854-12.186,7.888-19.19c2.31-15.365,5.506-30.526,12.026-44.747c0.488-1.007,0.559-2.842-0.026-3.469
				c-2.596-2.894-1.925-5.533-0.312-8.556c3.54-6.582,7.121-13.213,10.169-20.02c0.982-2.064,0.982-5.108,0.268-7.348
				c-1.476-4.748-1.703-9.065,0.383-13.747c0.737-1.659,0.49-4.145-0.137-5.96c-7.794-21.095-9.25-41.832,2.623-62.166
				c3.447-6.049,6.021-12.72,8.734-19.126c0.604-1.569,0.805-3.629,0.355-5.128c-4.75-16.326-9.695-32.562-14.623-48.776
				c0-0.089-0.199-0.179-0.826-0.647c-7.1,1.208-14.626,2.417-22.086,3.939c-13.838,2.688-27.787,3.941-41.964,3.001
				c-1.905-0.022-3.9,0-5.823,0.068c-12.314,0.358-20.046-9.408-16.797-21.5c0.674-2.507,1.747-4.994,2.957-7.257
				c5.6-9.895,12.247-19.438,16.729-29.896c5.307-12.338,16.414-20.02,22.979-31.239c3.064-5.218,8.173-9.115,11.732-14.131
				c1.7-2.33,1.725-5.867,2.893-8.69c0.938-2.06,2.079-4.167,3.755-5.689c4.169-3.829,8.178-8.398,13.259-10.792
				c10.837-5.196,18.973-14.108,29.407-19.907c1.386-0.721,3.11-1.794,3.628-3.139c2.176-5.284,6.628-6.896,11.488-7.792
				c4.344-0.873,6.11-3.651,6.384-7.503c0.847-10.704,0-20.804-7.751-29.428c-4.322-4.813-7.928-10.344-11.485-15.875
				c-9.256-14.421-8.336-36.884,2.259-50.276c6.543-8.273,15.899-12.109,25.701-15.095c-0.58-0.002-1.156-0.023-1.739-0.023
				c-220.026,0-398.424,178.396-398.424,398.424c0,90.357,30.095,173.682,80.777,240.523
				C4055.149,791.734,4054.634,788.304,4054.076,784.905z"/>
			<path fill-rule="evenodd" clip-rule="evenodd" fill="#2E94BC" d="M4310.961,390.289c-1.075,0.806-3.205,1.568-3.964,1.1
				c-5.44-3.764-8.463,0.825-13.571,3.356c6.874,1.074,12.407,1.995,17.981,2.645c1.815,0.201,4.909,0.402,5.331-0.449
				c0.829-1.634,0.356-4.011-0.091-5.955c-0.312-1.455-1.365-2.821-2.305-4.661C4313.018,387.917,4312.284,389.483,4310.961,390.289
				z"/>
			<path fill-rule="evenodd" clip-rule="evenodd" fill="#2E94BC" d="M4415.989,158.469c0.407,0.179,0.831,0.335,1.234,0.528
				c1.837,0.852,2.866,3.719,4.188,5.69c0.358,0.492,0.358,1.185,0.674,1.722c3.332,5.017,6.806,9.877,10.163,14.894
				c2.086,3.265,4.366,6.562,2.086,10.906c-0.381,0.783,0.536,2.822,1.429,3.739c2.555,2.487,5.424,4.635,8.176,6.92
				c4.079,3.45,4.079,6.451,0.563,10.37c-1.28,1.391-2.467,3.671-2.22,5.307c0.738,5.597,0.939,5.555-1.029,9.922
				c-0.27,2.104-0.605,4.23-0.718,6.358c-0.091,1.725-0.334,3.697,0.314,5.197c2.171,4.949,1.547,8.105-3.179,10.748
				c-3.43,1.859-7.255,2.933-10.707,4.748c-1.721,0.897-3.781,2.51-4.277,4.188c-1.476,5.22-2.327,10.637-3.651,16.842
				c2.754,1.053,6.208,2.284,9.563,3.785c7.301,3.201,14.623,6.381,21.766,9.964c5.828,2.866,9.16,8.062,10.124,14.222
				c2.284,14.735,4.233,29.425,5.936,44.115c1.254,9.856,1.925,19.778,2.905,30.302c-7.203,2.103-5.793,8.263-4.854,15.766
				c3.245-5.936,5.735-10.684,8.312-15.452c1.633-2.802,3.267-5.622,5.061-8.332c2.488-3.808,2.8-7.324,1.5-11.979
				c-2.467-8.198-2.398-16.754,0.534-24.906c1.705-4.858,4.032-9.494,6.364-13.995c1.003-1.747,2.931-3.023,4.37-4.525
				c1.161,1.793,2.325,3.561,3.491,5.353c0.085-0.267,0.134-0.425,0.217-0.716c3.54,2.328,6.992,4.701,10.531,7.054
				c0.759,0.494,1.654,0.762,2.462,1.189c3.181,1.9,6.133,3.11,7.882,7.589c1.213,3.022,4.794,5.911,5.955,9.697
				c0.718,2.218,1.369,5.328,0.471,7.142c-3.154,6.09-6.426,12.34-10.795,17.358c-10.098,11.507-16.232,24.991-21.429,38.875
				c-7.256,19.329-20.356,34.018-35.25,47.567c-1.764,1.524-4.884,2.464-7.187,2.217c-3.809-0.536-5.331,1.234-5.556,4.258
				c-0.425,6.178-0.695,12.361-0.559,18.584c0.042,5.198,1.254,10.348-2.891,14.783c-1.767,1.925-1.345,4.386,1.322,5.776
				c3.921,1.973,4.433,5.062,2.198,8.554c-7.526,11.76-2.535,22.286,3.402,32.63c0.535,1.029,1.789,1.93,1.813,2.913
				c0.269,6.47,5.418,9.941,8.528,14.713c1.977,3.022,3.945,6.762,4.235,10.19c0.983,10.747,3.179,20.805,7.792,30.656
				c8.111,17.131,15.318,34.735,23.447,51.863c3.72,7.794,8.287,15.301,13.301,22.259c5.289,7.504,8.401,15.506,6.586,24.391
				c-3.583,17.829,1.41,34.713,4.323,51.866c3.089,18.524,5.797,37.084,8.622,55.63c2.91,19.217,7.611,37.755,18.543,54.193
				c4.033,5.914,8.978,10.261,16.975,10.71c9.427,0.441,18.743,2.415,28.082,3.311c7.056,0.629,13.638-1.342,19.731-4.747
				c4.143-2.372,8.31-4.525,12.605-6.587c1.969-0.954,3.892-1.435,5.747-1.361c89.482-73.076,146.627-184.26,146.627-308.801
				C4771.841,348.986,4616.017,179.734,4415.989,158.469z"/>
			<path fill-rule="evenodd" clip-rule="evenodd" fill="#2E94BC" d="M4511.686,916.607c-1.101-6.539-0.581-13.438-2.264-19.795
				c-3.472-12.857-7.235-25.753-12.225-38.163c-6.833-16.931-14.584-33.454-22.423-49.894
				c-13.635-28.597-18.516-58.653-17.486-90.116c0.202-6.743-1.969-12.098-6.675-17.155c-14.913-16.191-29.673-32.651-44.389-49.087
				c-2.459-2.732-4.635-5.577-7.116-8.512c-2.264,4.008-4.26,7.504-6.343,10.905c-6.294,10.437-12.312,21.141-19.321,31.241
				c-11.203,16.104-23.652,31.307-34.426,47.63c-7.434,11.359-17.289,14.85-29.717,13.42c-21.52-2.601-43.065-4.865-64.832-5.892
				c-21.722-0.986-43.354-5.599-64.966-8.846c-21.093-3.069-41.653-0.178-62.103,5.106c-1.207,0.317-2.28,1.298-3.225,2.19
				c-1.161,1.212-1.835,2.847-3.062,3.808c-6.274,4.928-13.154,9.295-18.927,14.762c-8.938,8.441-15.833,18.341-18.948,30.473
				c-1.026,3.611-2.234,7.194-3.693,10.664c-0.783,1.881-1.995,3.786-3.493,5.196c-0.64,0.583-1.27,1.003-1.887,1.352
				c73.059,89.815,184.431,147.213,309.206,147.213c50.148,0,98.115-9.289,142.312-26.197
				C4513.931,923.642,4512.355,920.15,4511.686,916.607z"/>
		</g>
	</g>
</g>
</svg>
